<mxfile host="app.diagrams.net" agent="Mozilla/5.0 (Macintosh; Intel Mac OS X 10_15_7) AppleWebKit/537.36 (KHTML, like Gecko) Chrome/136.0.0.0 Safari/537.36" version="27.0.6">
  <diagram name="Pagina-1" id="vXaoLCMFYcnSWIQQiDWS">
    <mxGraphModel dx="187" dy="128" grid="1" gridSize="10" guides="1" tooltips="1" connect="1" arrows="1" fold="1" page="1" pageScale="1" pageWidth="827" pageHeight="1169" math="0" shadow="0">
      <root>
        <mxCell id="0" />
        <mxCell id="1" parent="0" />
        <mxCell id="LPHRDOvG9MagjACSPe5_-1" value="" style="edgeStyle=orthogonalEdgeStyle;rounded=0;orthogonalLoop=1;jettySize=auto;html=1;endArrow=none;startFill=0;" edge="1" parent="1" source="LPHRDOvG9MagjACSPe5_-2" target="LPHRDOvG9MagjACSPe5_-9">
          <mxGeometry relative="1" as="geometry" />
        </mxCell>
        <mxCell id="LPHRDOvG9MagjACSPe5_-2" value="" style="ellipse;whiteSpace=wrap;html=1;aspect=fixed;fillColor=#F2FF3D;" vertex="1" parent="1">
          <mxGeometry x="483" y="972" width="14" height="14" as="geometry" />
        </mxCell>
        <mxCell id="LPHRDOvG9MagjACSPe5_-3" value="Id_Encounter&lt;div&gt;&amp;nbsp;+&lt;div&gt;Code_Procedure&lt;br&gt;&lt;/div&gt;&lt;/div&gt;" style="text;html=1;align=center;verticalAlign=middle;resizable=0;points=[];autosize=1;strokeColor=none;fillColor=none;" vertex="1" parent="1">
          <mxGeometry x="435" y="897" width="110" height="60" as="geometry" />
        </mxCell>
        <mxCell id="LPHRDOvG9MagjACSPe5_-4" style="edgeStyle=orthogonalEdgeStyle;rounded=0;orthogonalLoop=1;jettySize=auto;html=1;exitX=1;exitY=1;exitDx=0;exitDy=0;entryX=0;entryY=0.5;entryDx=0;entryDy=0;curved=1;endArrow=classic;startFill=0;endFill=1;" edge="1" parent="1" source="LPHRDOvG9MagjACSPe5_-9" target="LPHRDOvG9MagjACSPe5_-31">
          <mxGeometry relative="1" as="geometry">
            <Array as="points">
              <mxPoint x="695" y="992" />
              <mxPoint x="753" y="992" />
            </Array>
          </mxGeometry>
        </mxCell>
        <mxCell id="LPHRDOvG9MagjACSPe5_-5" style="edgeStyle=orthogonalEdgeStyle;rounded=0;orthogonalLoop=1;jettySize=auto;html=1;exitX=0.5;exitY=1;exitDx=0;exitDy=0;entryX=0.5;entryY=0;entryDx=0;entryDy=0;endArrow=none;startFill=0;" edge="1" parent="1" source="LPHRDOvG9MagjACSPe5_-9" target="LPHRDOvG9MagjACSPe5_-40">
          <mxGeometry relative="1" as="geometry" />
        </mxCell>
        <mxCell id="LPHRDOvG9MagjACSPe5_-6" style="edgeStyle=orthogonalEdgeStyle;rounded=0;orthogonalLoop=1;jettySize=auto;html=1;exitX=0;exitY=0;exitDx=0;exitDy=0;entryX=0.5;entryY=1;entryDx=0;entryDy=0;endArrow=none;startFill=0;curved=1;" edge="1" parent="1" source="LPHRDOvG9MagjACSPe5_-9" target="LPHRDOvG9MagjACSPe5_-42">
          <mxGeometry relative="1" as="geometry">
            <mxPoint x="663" y="852" as="targetPoint" />
          </mxGeometry>
        </mxCell>
        <mxCell id="LPHRDOvG9MagjACSPe5_-7" style="edgeStyle=orthogonalEdgeStyle;rounded=0;orthogonalLoop=1;jettySize=auto;html=1;exitX=0.5;exitY=0;exitDx=0;exitDy=0;entryX=0.5;entryY=1;entryDx=0;entryDy=0;curved=1;endArrow=none;startFill=0;" edge="1" parent="1" source="LPHRDOvG9MagjACSPe5_-9" target="LPHRDOvG9MagjACSPe5_-23">
          <mxGeometry relative="1" as="geometry" />
        </mxCell>
        <mxCell id="LPHRDOvG9MagjACSPe5_-8" style="edgeStyle=orthogonalEdgeStyle;rounded=0;orthogonalLoop=1;jettySize=auto;html=1;exitX=1;exitY=0.5;exitDx=0;exitDy=0;entryX=0;entryY=0.5;entryDx=0;entryDy=0;curved=1;endArrow=none;startFill=0;" edge="1" parent="1" source="LPHRDOvG9MagjACSPe5_-9" target="LPHRDOvG9MagjACSPe5_-124">
          <mxGeometry relative="1" as="geometry">
            <Array as="points">
              <mxPoint x="823" y="979" />
              <mxPoint x="823" y="764" />
              <mxPoint x="923" y="764" />
            </Array>
          </mxGeometry>
        </mxCell>
        <mxCell id="LPHRDOvG9MagjACSPe5_-9" value="" style="ellipse;whiteSpace=wrap;html=1;aspect=fixed;fillColor=#FFFFFF;" vertex="1" parent="1">
          <mxGeometry x="683" y="972" width="14" height="14" as="geometry" />
        </mxCell>
        <mxCell id="LPHRDOvG9MagjACSPe5_-10" style="edgeStyle=orthogonalEdgeStyle;rounded=0;orthogonalLoop=1;jettySize=auto;html=1;exitX=0.5;exitY=0;exitDx=0;exitDy=0;entryX=1;entryY=1;entryDx=0;entryDy=0;endArrow=none;startFill=0;curved=1;" edge="1" parent="1" source="LPHRDOvG9MagjACSPe5_-11" target="LPHRDOvG9MagjACSPe5_-2">
          <mxGeometry relative="1" as="geometry" />
        </mxCell>
        <mxCell id="LPHRDOvG9MagjACSPe5_-11" value="" style="ellipse;whiteSpace=wrap;html=1;aspect=fixed;fillColor=#FFFFFF;" vertex="1" parent="1">
          <mxGeometry x="503" y="1022" width="14" height="14" as="geometry" />
        </mxCell>
        <mxCell id="LPHRDOvG9MagjACSPe5_-12" style="edgeStyle=orthogonalEdgeStyle;rounded=0;orthogonalLoop=1;jettySize=auto;html=1;exitX=0.5;exitY=0;exitDx=0;exitDy=0;entryX=0;entryY=1;entryDx=0;entryDy=0;curved=1;endArrow=none;startFill=0;" edge="1" parent="1" source="LPHRDOvG9MagjACSPe5_-13" target="LPHRDOvG9MagjACSPe5_-2">
          <mxGeometry relative="1" as="geometry" />
        </mxCell>
        <mxCell id="LPHRDOvG9MagjACSPe5_-13" value="" style="ellipse;whiteSpace=wrap;html=1;aspect=fixed;fillColor=#FFFFFF;" vertex="1" parent="1">
          <mxGeometry x="463" y="1022" width="14" height="14" as="geometry" />
        </mxCell>
        <mxCell id="LPHRDOvG9MagjACSPe5_-14" value="Start" style="text;html=1;align=center;verticalAlign=middle;resizable=0;points=[];autosize=1;strokeColor=none;fillColor=none;" vertex="1" parent="1">
          <mxGeometry x="438" y="1030" width="50" height="30" as="geometry" />
        </mxCell>
        <mxCell id="LPHRDOvG9MagjACSPe5_-15" value="Stop" style="text;html=1;align=center;verticalAlign=middle;resizable=0;points=[];autosize=1;strokeColor=none;fillColor=none;" vertex="1" parent="1">
          <mxGeometry x="503" y="1030" width="50" height="30" as="geometry" />
        </mxCell>
        <mxCell id="LPHRDOvG9MagjACSPe5_-16" style="edgeStyle=orthogonalEdgeStyle;rounded=0;orthogonalLoop=1;jettySize=auto;html=1;exitX=1;exitY=0.5;exitDx=0;exitDy=0;entryX=0;entryY=0.5;entryDx=0;entryDy=0;endArrow=none;startFill=0;" edge="1" parent="1" source="LPHRDOvG9MagjACSPe5_-17" target="LPHRDOvG9MagjACSPe5_-2">
          <mxGeometry relative="1" as="geometry" />
        </mxCell>
        <mxCell id="LPHRDOvG9MagjACSPe5_-17" value="" style="ellipse;whiteSpace=wrap;html=1;aspect=fixed;fillColor=#FFFFFF;" vertex="1" parent="1">
          <mxGeometry x="393" y="972" width="14" height="14" as="geometry" />
        </mxCell>
        <mxCell id="LPHRDOvG9MagjACSPe5_-18" value="Code_Procedure" style="text;html=1;align=center;verticalAlign=middle;resizable=0;points=[];autosize=1;strokeColor=none;fillColor=none;" vertex="1" parent="1">
          <mxGeometry x="345" y="986" width="110" height="30" as="geometry" />
        </mxCell>
        <mxCell id="LPHRDOvG9MagjACSPe5_-19" style="edgeStyle=orthogonalEdgeStyle;rounded=0;orthogonalLoop=1;jettySize=auto;html=1;entryX=0;entryY=0.5;entryDx=0;entryDy=0;endArrow=none;startFill=0;" edge="1" parent="1" source="LPHRDOvG9MagjACSPe5_-20" target="LPHRDOvG9MagjACSPe5_-17">
          <mxGeometry relative="1" as="geometry" />
        </mxCell>
        <mxCell id="LPHRDOvG9MagjACSPe5_-20" value="" style="ellipse;whiteSpace=wrap;html=1;aspect=fixed;fillColor=#FFFFFF;" vertex="1" parent="1">
          <mxGeometry x="323" y="972" width="14" height="14" as="geometry" />
        </mxCell>
        <mxCell id="LPHRDOvG9MagjACSPe5_-21" value="Description" style="text;html=1;align=center;verticalAlign=middle;resizable=0;points=[];autosize=1;strokeColor=none;fillColor=none;" vertex="1" parent="1">
          <mxGeometry x="290" y="942" width="80" height="30" as="geometry" />
        </mxCell>
        <mxCell id="LPHRDOvG9MagjACSPe5_-22" value="Id_Encounter" style="text;html=1;align=center;verticalAlign=middle;resizable=0;points=[];autosize=1;strokeColor=none;fillColor=none;" vertex="1" parent="1">
          <mxGeometry x="577" y="944" width="90" height="30" as="geometry" />
        </mxCell>
        <mxCell id="LPHRDOvG9MagjACSPe5_-23" value="" style="ellipse;whiteSpace=wrap;html=1;aspect=fixed;fillColor=#FFFFFF;" vertex="1" parent="1">
          <mxGeometry x="751" y="868" width="14" height="14" as="geometry" />
        </mxCell>
        <mxCell id="LPHRDOvG9MagjACSPe5_-24" style="edgeStyle=orthogonalEdgeStyle;rounded=0;orthogonalLoop=1;jettySize=auto;html=1;exitX=1;exitY=0.5;exitDx=0;exitDy=0;entryX=0;entryY=0.5;entryDx=0;entryDy=0;endArrow=classic;startFill=0;endFill=1;" edge="1" parent="1" source="LPHRDOvG9MagjACSPe5_-31" target="LPHRDOvG9MagjACSPe5_-55">
          <mxGeometry relative="1" as="geometry" />
        </mxCell>
        <mxCell id="LPHRDOvG9MagjACSPe5_-25" style="edgeStyle=orthogonalEdgeStyle;rounded=0;orthogonalLoop=1;jettySize=auto;html=1;exitX=0.5;exitY=1;exitDx=0;exitDy=0;entryX=0.5;entryY=0;entryDx=0;entryDy=0;curved=1;endArrow=none;startFill=0;" edge="1" parent="1" source="LPHRDOvG9MagjACSPe5_-31" target="LPHRDOvG9MagjACSPe5_-58">
          <mxGeometry relative="1" as="geometry" />
        </mxCell>
        <mxCell id="LPHRDOvG9MagjACSPe5_-26" style="edgeStyle=orthogonalEdgeStyle;rounded=0;orthogonalLoop=1;jettySize=auto;html=1;exitX=0;exitY=0;exitDx=0;exitDy=0;entryX=1;entryY=1;entryDx=0;entryDy=0;strokeColor=default;curved=1;endArrow=none;startFill=0;" edge="1" parent="1" source="LPHRDOvG9MagjACSPe5_-31" target="LPHRDOvG9MagjACSPe5_-56">
          <mxGeometry relative="1" as="geometry" />
        </mxCell>
        <mxCell id="LPHRDOvG9MagjACSPe5_-27" style="edgeStyle=orthogonalEdgeStyle;rounded=0;orthogonalLoop=1;jettySize=auto;html=1;exitX=0.5;exitY=0;exitDx=0;exitDy=0;entryX=0.5;entryY=1;entryDx=0;entryDy=0;curved=1;endArrow=none;startFill=0;" edge="1" parent="1" source="LPHRDOvG9MagjACSPe5_-31" target="LPHRDOvG9MagjACSPe5_-66">
          <mxGeometry relative="1" as="geometry" />
        </mxCell>
        <mxCell id="LPHRDOvG9MagjACSPe5_-28" style="edgeStyle=orthogonalEdgeStyle;rounded=0;orthogonalLoop=1;jettySize=auto;html=1;exitX=1;exitY=0;exitDx=0;exitDy=0;entryX=0.5;entryY=1;entryDx=0;entryDy=0;curved=1;endArrow=none;startFill=0;" edge="1" parent="1" source="LPHRDOvG9MagjACSPe5_-31" target="LPHRDOvG9MagjACSPe5_-32">
          <mxGeometry relative="1" as="geometry" />
        </mxCell>
        <mxCell id="LPHRDOvG9MagjACSPe5_-29" style="edgeStyle=orthogonalEdgeStyle;rounded=0;orthogonalLoop=1;jettySize=auto;html=1;exitX=0.933;exitY=0.302;exitDx=0;exitDy=0;entryX=0.5;entryY=1;entryDx=0;entryDy=0;curved=1;endArrow=none;startFill=0;exitPerimeter=0;" edge="1" parent="1" source="LPHRDOvG9MagjACSPe5_-31" target="LPHRDOvG9MagjACSPe5_-69">
          <mxGeometry relative="1" as="geometry" />
        </mxCell>
        <mxCell id="LPHRDOvG9MagjACSPe5_-30" style="edgeStyle=orthogonalEdgeStyle;rounded=0;orthogonalLoop=1;jettySize=auto;html=1;exitX=1.014;exitY=0.588;exitDx=0;exitDy=0;entryX=0;entryY=0.5;entryDx=0;entryDy=0;curved=1;endArrow=none;startFill=0;exitPerimeter=0;" edge="1" parent="1" source="LPHRDOvG9MagjACSPe5_-31" target="LPHRDOvG9MagjACSPe5_-70">
          <mxGeometry relative="1" as="geometry" />
        </mxCell>
        <mxCell id="LPHRDOvG9MagjACSPe5_-31" value="" style="ellipse;whiteSpace=wrap;html=1;aspect=fixed;fillColor=#FFFFFF;" vertex="1" parent="1">
          <mxGeometry x="856" y="986" width="14" height="14" as="geometry" />
        </mxCell>
        <mxCell id="LPHRDOvG9MagjACSPe5_-32" value="" style="ellipse;whiteSpace=wrap;html=1;aspect=fixed;fillColor=#FFFFFF;" vertex="1" parent="1">
          <mxGeometry x="893" y="950" width="14" height="14" as="geometry" />
        </mxCell>
        <mxCell id="LPHRDOvG9MagjACSPe5_-33" style="edgeStyle=orthogonalEdgeStyle;rounded=0;orthogonalLoop=1;jettySize=auto;html=1;exitX=0;exitY=0;exitDx=0;exitDy=0;entryX=0.5;entryY=0;entryDx=0;entryDy=0;curved=1;endArrow=none;startFill=0;" edge="1" parent="1" source="LPHRDOvG9MagjACSPe5_-40" target="LPHRDOvG9MagjACSPe5_-93">
          <mxGeometry relative="1" as="geometry" />
        </mxCell>
        <mxCell id="LPHRDOvG9MagjACSPe5_-34" style="edgeStyle=orthogonalEdgeStyle;rounded=0;orthogonalLoop=1;jettySize=auto;html=1;exitX=0;exitY=0.5;exitDx=0;exitDy=0;entryX=0.5;entryY=0;entryDx=0;entryDy=0;curved=1;endArrow=none;startFill=0;" edge="1" parent="1" source="LPHRDOvG9MagjACSPe5_-40" target="LPHRDOvG9MagjACSPe5_-91">
          <mxGeometry relative="1" as="geometry" />
        </mxCell>
        <mxCell id="LPHRDOvG9MagjACSPe5_-35" style="edgeStyle=orthogonalEdgeStyle;rounded=0;orthogonalLoop=1;jettySize=auto;html=1;exitX=0;exitY=1;exitDx=0;exitDy=0;entryX=0.5;entryY=0;entryDx=0;entryDy=0;curved=1;endArrow=none;startFill=0;" edge="1" parent="1" source="LPHRDOvG9MagjACSPe5_-40" target="LPHRDOvG9MagjACSPe5_-92">
          <mxGeometry relative="1" as="geometry" />
        </mxCell>
        <mxCell id="LPHRDOvG9MagjACSPe5_-36" style="edgeStyle=orthogonalEdgeStyle;rounded=0;orthogonalLoop=1;jettySize=auto;html=1;exitX=1;exitY=1;exitDx=0;exitDy=0;curved=1;endArrow=none;startFill=0;" edge="1" parent="1" source="LPHRDOvG9MagjACSPe5_-40" target="LPHRDOvG9MagjACSPe5_-99">
          <mxGeometry relative="1" as="geometry" />
        </mxCell>
        <mxCell id="LPHRDOvG9MagjACSPe5_-37" style="edgeStyle=orthogonalEdgeStyle;rounded=0;orthogonalLoop=1;jettySize=auto;html=1;exitX=0.971;exitY=0.342;exitDx=0;exitDy=0;entryX=0;entryY=0.5;entryDx=0;entryDy=0;curved=1;exitPerimeter=0;endArrow=none;startFill=0;" edge="1" parent="1" source="LPHRDOvG9MagjACSPe5_-40" target="LPHRDOvG9MagjACSPe5_-106">
          <mxGeometry relative="1" as="geometry" />
        </mxCell>
        <mxCell id="LPHRDOvG9MagjACSPe5_-38" style="edgeStyle=orthogonalEdgeStyle;rounded=0;orthogonalLoop=1;jettySize=auto;html=1;exitX=1;exitY=0;exitDx=0;exitDy=0;entryX=0;entryY=1;entryDx=0;entryDy=0;curved=1;" edge="1" parent="1" source="LPHRDOvG9MagjACSPe5_-40" target="LPHRDOvG9MagjACSPe5_-55">
          <mxGeometry relative="1" as="geometry">
            <mxPoint x="1143" y="1072" as="targetPoint" />
            <Array as="points">
              <mxPoint x="1013" y="1234" />
              <mxPoint x="1013" y="998" />
            </Array>
          </mxGeometry>
        </mxCell>
        <mxCell id="LPHRDOvG9MagjACSPe5_-39" style="edgeStyle=orthogonalEdgeStyle;rounded=0;orthogonalLoop=1;jettySize=auto;html=1;entryX=0;entryY=1;entryDx=0;entryDy=0;curved=1;exitX=0.675;exitY=0.002;exitDx=0;exitDy=0;exitPerimeter=0;" edge="1" parent="1" source="LPHRDOvG9MagjACSPe5_-40" target="LPHRDOvG9MagjACSPe5_-31">
          <mxGeometry relative="1" as="geometry">
            <Array as="points">
              <mxPoint x="692" y="1222" />
              <mxPoint x="763" y="1222" />
              <mxPoint x="763" y="998" />
            </Array>
          </mxGeometry>
        </mxCell>
        <mxCell id="LPHRDOvG9MagjACSPe5_-40" value="" style="ellipse;whiteSpace=wrap;html=1;aspect=fixed;fillColor=#FFFFFF;" vertex="1" parent="1">
          <mxGeometry x="683" y="1232" width="14" height="14" as="geometry" />
        </mxCell>
        <mxCell id="LPHRDOvG9MagjACSPe5_-41" style="edgeStyle=orthogonalEdgeStyle;rounded=0;orthogonalLoop=1;jettySize=auto;html=1;exitX=1;exitY=0;exitDx=0;exitDy=0;curved=1;endArrow=none;startFill=0;" edge="1" parent="1" source="LPHRDOvG9MagjACSPe5_-42" target="LPHRDOvG9MagjACSPe5_-47">
          <mxGeometry relative="1" as="geometry" />
        </mxCell>
        <mxCell id="LPHRDOvG9MagjACSPe5_-42" value="" style="ellipse;whiteSpace=wrap;html=1;aspect=fixed;fillColor=#FFFFFF;" vertex="1" parent="1">
          <mxGeometry x="653" y="756" width="14" height="14" as="geometry" />
        </mxCell>
        <mxCell id="LPHRDOvG9MagjACSPe5_-43" value="Code_Type_Encounter&lt;div&gt;&lt;br&gt;&lt;/div&gt;" style="text;html=1;align=center;verticalAlign=middle;resizable=0;points=[];autosize=1;strokeColor=none;fillColor=none;" vertex="1" parent="1">
          <mxGeometry x="497" y="743" width="150" height="40" as="geometry" />
        </mxCell>
        <mxCell id="LPHRDOvG9MagjACSPe5_-44" style="edgeStyle=orthogonalEdgeStyle;rounded=0;orthogonalLoop=1;jettySize=auto;html=1;exitX=0.5;exitY=1;exitDx=0;exitDy=0;entryX=0;entryY=0;entryDx=0;entryDy=0;curved=1;endArrow=none;startFill=0;" edge="1" parent="1" source="LPHRDOvG9MagjACSPe5_-45" target="LPHRDOvG9MagjACSPe5_-42">
          <mxGeometry relative="1" as="geometry" />
        </mxCell>
        <mxCell id="LPHRDOvG9MagjACSPe5_-45" value="" style="ellipse;whiteSpace=wrap;html=1;aspect=fixed;fillColor=#FFFFFF;" vertex="1" parent="1">
          <mxGeometry x="597" y="676" width="14" height="14" as="geometry" />
        </mxCell>
        <mxCell id="LPHRDOvG9MagjACSPe5_-46" value="Description" style="text;html=1;align=center;verticalAlign=middle;resizable=0;points=[];autosize=1;strokeColor=none;fillColor=none;" vertex="1" parent="1">
          <mxGeometry x="517" y="676" width="80" height="30" as="geometry" />
        </mxCell>
        <mxCell id="LPHRDOvG9MagjACSPe5_-47" value="" style="ellipse;whiteSpace=wrap;html=1;aspect=fixed;fillColor=#FFFFFF;" vertex="1" parent="1">
          <mxGeometry x="713" y="676" width="14" height="14" as="geometry" />
        </mxCell>
        <mxCell id="LPHRDOvG9MagjACSPe5_-48" value="Base_Cost" style="text;html=1;align=center;verticalAlign=middle;resizable=0;points=[];autosize=1;strokeColor=none;fillColor=none;" vertex="1" parent="1">
          <mxGeometry x="723" y="656" width="80" height="30" as="geometry" />
        </mxCell>
        <mxCell id="LPHRDOvG9MagjACSPe5_-49" value="Id_Class" style="text;html=1;align=center;verticalAlign=middle;resizable=0;points=[];autosize=1;strokeColor=none;fillColor=none;" vertex="1" parent="1">
          <mxGeometry x="683" y="860" width="70" height="30" as="geometry" />
        </mxCell>
        <mxCell id="LPHRDOvG9MagjACSPe5_-50" style="edgeStyle=orthogonalEdgeStyle;rounded=0;orthogonalLoop=1;jettySize=auto;html=1;exitX=0.5;exitY=1;exitDx=0;exitDy=0;entryX=0.5;entryY=0;entryDx=0;entryDy=0;endArrow=none;startFill=0;" edge="1" parent="1" source="LPHRDOvG9MagjACSPe5_-51" target="LPHRDOvG9MagjACSPe5_-23">
          <mxGeometry relative="1" as="geometry" />
        </mxCell>
        <mxCell id="LPHRDOvG9MagjACSPe5_-51" value="" style="ellipse;whiteSpace=wrap;html=1;aspect=fixed;fillColor=#FFFFFF;" vertex="1" parent="1">
          <mxGeometry x="751" y="792" width="14" height="14" as="geometry" />
        </mxCell>
        <mxCell id="LPHRDOvG9MagjACSPe5_-52" value="Name" style="text;html=1;align=center;verticalAlign=middle;resizable=0;points=[];autosize=1;strokeColor=none;fillColor=none;" vertex="1" parent="1">
          <mxGeometry x="691" y="762" width="60" height="30" as="geometry" />
        </mxCell>
        <mxCell id="LPHRDOvG9MagjACSPe5_-53" value="Id_Organization" style="text;html=1;align=center;verticalAlign=middle;resizable=0;points=[];autosize=1;strokeColor=none;fillColor=none;" vertex="1" parent="1">
          <mxGeometry x="748" y="967" width="110" height="30" as="geometry" />
        </mxCell>
        <mxCell id="LPHRDOvG9MagjACSPe5_-54" style="edgeStyle=orthogonalEdgeStyle;rounded=0;orthogonalLoop=1;jettySize=auto;html=1;exitX=1;exitY=0.5;exitDx=0;exitDy=0;entryX=0;entryY=0.5;entryDx=0;entryDy=0;endArrow=none;startFill=0;" edge="1" parent="1" source="LPHRDOvG9MagjACSPe5_-55" target="LPHRDOvG9MagjACSPe5_-79">
          <mxGeometry relative="1" as="geometry" />
        </mxCell>
        <mxCell id="LPHRDOvG9MagjACSPe5_-55" value="" style="ellipse;whiteSpace=wrap;html=1;aspect=fixed;fillColor=#FFFFFF;" vertex="1" parent="1">
          <mxGeometry x="1033" y="986" width="14" height="14" as="geometry" />
        </mxCell>
        <mxCell id="LPHRDOvG9MagjACSPe5_-56" value="" style="ellipse;whiteSpace=wrap;html=1;aspect=fixed;fillColor=#FFFFFF;" vertex="1" parent="1">
          <mxGeometry x="833" y="958" width="14" height="14" as="geometry" />
        </mxCell>
        <mxCell id="LPHRDOvG9MagjACSPe5_-57" value="" style="ellipse;whiteSpace=wrap;html=1;aspect=fixed;fillColor=#FFFFFF;" vertex="1" parent="1">
          <mxGeometry x="870" y="1062" width="14" height="14" as="geometry" />
        </mxCell>
        <mxCell id="LPHRDOvG9MagjACSPe5_-58" value="" style="ellipse;whiteSpace=wrap;html=1;aspect=fixed;fillColor=#FFFFFF;" vertex="1" parent="1">
          <mxGeometry x="833" y="1062" width="14" height="14" as="geometry" />
        </mxCell>
        <mxCell id="LPHRDOvG9MagjACSPe5_-59" value="" style="ellipse;whiteSpace=wrap;html=1;aspect=fixed;fillColor=#FFFFFF;" vertex="1" parent="1">
          <mxGeometry x="933" y="1052" width="14" height="14" as="geometry" />
        </mxCell>
        <mxCell id="LPHRDOvG9MagjACSPe5_-60" value="Name" style="text;html=1;align=center;verticalAlign=middle;resizable=0;points=[];autosize=1;strokeColor=none;fillColor=none;" vertex="1" parent="1">
          <mxGeometry x="783" y="1052" width="60" height="30" as="geometry" />
        </mxCell>
        <mxCell id="LPHRDOvG9MagjACSPe5_-61" value="Address" style="text;strokeColor=none;align=center;fillColor=none;html=1;verticalAlign=middle;whiteSpace=wrap;rounded=0;" vertex="1" parent="1">
          <mxGeometry x="847" y="1066" width="60" height="30" as="geometry" />
        </mxCell>
        <mxCell id="LPHRDOvG9MagjACSPe5_-62" style="edgeStyle=orthogonalEdgeStyle;rounded=0;orthogonalLoop=1;jettySize=auto;html=1;exitX=1;exitY=1;exitDx=0;exitDy=0;entryX=0.5;entryY=0;entryDx=0;entryDy=0;curved=1;endArrow=none;startFill=0;" edge="1" parent="1" source="LPHRDOvG9MagjACSPe5_-31" target="LPHRDOvG9MagjACSPe5_-57">
          <mxGeometry relative="1" as="geometry">
            <mxPoint x="900" y="1000" as="sourcePoint" />
            <mxPoint x="877" y="1062" as="targetPoint" />
            <Array as="points">
              <mxPoint x="868" y="1000" />
              <mxPoint x="878" y="1000" />
              <mxPoint x="878" y="1062" />
            </Array>
          </mxGeometry>
        </mxCell>
        <mxCell id="LPHRDOvG9MagjACSPe5_-63" style="edgeStyle=orthogonalEdgeStyle;rounded=0;orthogonalLoop=1;jettySize=auto;html=1;exitX=0.934;exitY=0.725;exitDx=0;exitDy=0;curved=1;endArrow=none;startFill=0;exitPerimeter=0;" edge="1" parent="1" source="LPHRDOvG9MagjACSPe5_-31" target="LPHRDOvG9MagjACSPe5_-59">
          <mxGeometry relative="1" as="geometry">
            <mxPoint x="878" y="1008" as="sourcePoint" />
            <mxPoint x="887" y="1072" as="targetPoint" />
            <Array as="points">
              <mxPoint x="883" y="996" />
              <mxPoint x="883" y="1002" />
              <mxPoint x="893" y="1002" />
              <mxPoint x="893" y="1059" />
            </Array>
          </mxGeometry>
        </mxCell>
        <mxCell id="LPHRDOvG9MagjACSPe5_-64" value="Zip_Code" style="text;html=1;align=center;verticalAlign=middle;resizable=0;points=[];autosize=1;strokeColor=none;fillColor=none;" vertex="1" parent="1">
          <mxGeometry x="893" y="1060" width="80" height="30" as="geometry" />
        </mxCell>
        <mxCell id="LPHRDOvG9MagjACSPe5_-65" value="Lat" style="text;html=1;align=center;verticalAlign=middle;resizable=0;points=[];autosize=1;strokeColor=none;fillColor=none;" vertex="1" parent="1">
          <mxGeometry x="830" y="937" width="40" height="30" as="geometry" />
        </mxCell>
        <mxCell id="LPHRDOvG9MagjACSPe5_-66" value="" style="ellipse;whiteSpace=wrap;html=1;aspect=fixed;fillColor=#FFFFFF;" vertex="1" parent="1">
          <mxGeometry x="869" y="950" width="14" height="14" as="geometry" />
        </mxCell>
        <mxCell id="LPHRDOvG9MagjACSPe5_-67" value="Lon" style="text;html=1;align=center;verticalAlign=middle;resizable=0;points=[];autosize=1;strokeColor=none;fillColor=none;" vertex="1" parent="1">
          <mxGeometry x="856" y="928" width="40" height="30" as="geometry" />
        </mxCell>
        <mxCell id="LPHRDOvG9MagjACSPe5_-68" value="Phone" style="text;html=1;align=center;verticalAlign=middle;resizable=0;points=[];autosize=1;strokeColor=none;fillColor=none;" vertex="1" parent="1">
          <mxGeometry x="887" y="928" width="60" height="30" as="geometry" />
        </mxCell>
        <mxCell id="LPHRDOvG9MagjACSPe5_-69" value="" style="ellipse;whiteSpace=wrap;html=1;aspect=fixed;fillColor=#FFFFFF;" vertex="1" parent="1">
          <mxGeometry x="933" y="952" width="14" height="14" as="geometry" />
        </mxCell>
        <mxCell id="LPHRDOvG9MagjACSPe5_-70" value="" style="ellipse;whiteSpace=wrap;html=1;aspect=fixed;fillColor=#FFFFFF;" vertex="1" parent="1">
          <mxGeometry x="933" y="1008" width="14" height="14" as="geometry" />
        </mxCell>
        <mxCell id="LPHRDOvG9MagjACSPe5_-71" value="Revenue" style="text;html=1;align=center;verticalAlign=middle;resizable=0;points=[];autosize=1;strokeColor=none;fillColor=none;" vertex="1" parent="1">
          <mxGeometry x="933" y="934" width="70" height="30" as="geometry" />
        </mxCell>
        <mxCell id="LPHRDOvG9MagjACSPe5_-72" value="Utilization" style="text;html=1;align=center;verticalAlign=middle;resizable=0;points=[];autosize=1;strokeColor=none;fillColor=none;" vertex="1" parent="1">
          <mxGeometry x="903" y="1014" width="80" height="30" as="geometry" />
        </mxCell>
        <mxCell id="LPHRDOvG9MagjACSPe5_-73" value="Id_City" style="text;html=1;align=center;verticalAlign=middle;resizable=0;points=[];autosize=1;strokeColor=none;fillColor=none;" vertex="1" parent="1">
          <mxGeometry x="1033" y="992" width="60" height="30" as="geometry" />
        </mxCell>
        <mxCell id="LPHRDOvG9MagjACSPe5_-74" style="edgeStyle=orthogonalEdgeStyle;rounded=0;orthogonalLoop=1;jettySize=auto;html=1;entryX=0.5;entryY=1;entryDx=0;entryDy=0;endArrow=none;startFill=0;" edge="1" parent="1" source="LPHRDOvG9MagjACSPe5_-75" target="LPHRDOvG9MagjACSPe5_-55">
          <mxGeometry relative="1" as="geometry" />
        </mxCell>
        <mxCell id="LPHRDOvG9MagjACSPe5_-75" value="" style="ellipse;whiteSpace=wrap;html=1;aspect=fixed;fillColor=#FFFFFF;" vertex="1" parent="1">
          <mxGeometry x="1033" y="1022" width="14" height="14" as="geometry" />
        </mxCell>
        <mxCell id="LPHRDOvG9MagjACSPe5_-76" value="Name" style="text;html=1;align=center;verticalAlign=middle;resizable=0;points=[];autosize=1;strokeColor=none;fillColor=none;" vertex="1" parent="1">
          <mxGeometry x="1010" y="1030" width="60" height="30" as="geometry" />
        </mxCell>
        <mxCell id="LPHRDOvG9MagjACSPe5_-77" style="edgeStyle=orthogonalEdgeStyle;rounded=0;orthogonalLoop=1;jettySize=auto;html=1;exitX=0.5;exitY=1;exitDx=0;exitDy=0;entryX=0.5;entryY=0;entryDx=0;entryDy=0;endArrow=none;startFill=0;" edge="1" parent="1" source="LPHRDOvG9MagjACSPe5_-79" target="LPHRDOvG9MagjACSPe5_-81">
          <mxGeometry relative="1" as="geometry" />
        </mxCell>
        <mxCell id="LPHRDOvG9MagjACSPe5_-78" style="edgeStyle=orthogonalEdgeStyle;rounded=0;orthogonalLoop=1;jettySize=auto;html=1;exitX=1;exitY=0.5;exitDx=0;exitDy=0;entryX=0;entryY=0.5;entryDx=0;entryDy=0;endArrow=none;startFill=0;" edge="1" parent="1" source="LPHRDOvG9MagjACSPe5_-79" target="LPHRDOvG9MagjACSPe5_-84">
          <mxGeometry relative="1" as="geometry" />
        </mxCell>
        <mxCell id="LPHRDOvG9MagjACSPe5_-79" value="" style="ellipse;whiteSpace=wrap;html=1;aspect=fixed;fillColor=#FFFFFF;" vertex="1" parent="1">
          <mxGeometry x="1113" y="986" width="14" height="14" as="geometry" />
        </mxCell>
        <mxCell id="LPHRDOvG9MagjACSPe5_-80" value="Id_County" style="text;html=1;align=center;verticalAlign=middle;resizable=0;points=[];autosize=1;strokeColor=none;fillColor=none;" vertex="1" parent="1">
          <mxGeometry x="1080" y="958" width="80" height="30" as="geometry" />
        </mxCell>
        <mxCell id="LPHRDOvG9MagjACSPe5_-81" value="" style="ellipse;whiteSpace=wrap;html=1;aspect=fixed;fillColor=#FFFFFF;" vertex="1" parent="1">
          <mxGeometry x="1113" y="1022" width="14" height="14" as="geometry" />
        </mxCell>
        <mxCell id="LPHRDOvG9MagjACSPe5_-82" value="Name" style="text;html=1;align=center;verticalAlign=middle;resizable=0;points=[];autosize=1;strokeColor=none;fillColor=none;" vertex="1" parent="1">
          <mxGeometry x="1090" y="1032" width="60" height="30" as="geometry" />
        </mxCell>
        <mxCell id="LPHRDOvG9MagjACSPe5_-83" style="edgeStyle=orthogonalEdgeStyle;rounded=0;orthogonalLoop=1;jettySize=auto;html=1;exitX=0.5;exitY=1;exitDx=0;exitDy=0;entryX=0.5;entryY=0;entryDx=0;entryDy=0;endArrow=none;startFill=0;" edge="1" parent="1" source="LPHRDOvG9MagjACSPe5_-84" target="LPHRDOvG9MagjACSPe5_-86">
          <mxGeometry relative="1" as="geometry" />
        </mxCell>
        <mxCell id="LPHRDOvG9MagjACSPe5_-84" value="" style="ellipse;whiteSpace=wrap;html=1;aspect=fixed;fillColor=#FFFFFF;" vertex="1" parent="1">
          <mxGeometry x="1183" y="986" width="14" height="14" as="geometry" />
        </mxCell>
        <mxCell id="LPHRDOvG9MagjACSPe5_-85" value="Id_State" style="text;html=1;align=center;verticalAlign=middle;resizable=0;points=[];autosize=1;strokeColor=none;fillColor=none;" vertex="1" parent="1">
          <mxGeometry x="1155" y="958" width="70" height="30" as="geometry" />
        </mxCell>
        <mxCell id="LPHRDOvG9MagjACSPe5_-86" value="" style="ellipse;whiteSpace=wrap;html=1;aspect=fixed;fillColor=#FFFFFF;" vertex="1" parent="1">
          <mxGeometry x="1183" y="1022" width="14" height="14" as="geometry" />
        </mxCell>
        <mxCell id="LPHRDOvG9MagjACSPe5_-87" value="Name" style="text;html=1;align=center;verticalAlign=middle;resizable=0;points=[];autosize=1;strokeColor=none;fillColor=none;" vertex="1" parent="1">
          <mxGeometry x="1160" y="1030" width="60" height="30" as="geometry" />
        </mxCell>
        <mxCell id="LPHRDOvG9MagjACSPe5_-88" value="Id_Provider" style="text;html=1;align=center;verticalAlign=middle;resizable=0;points=[];autosize=1;strokeColor=none;fillColor=none;" vertex="1" parent="1">
          <mxGeometry x="607" y="1202" width="80" height="30" as="geometry" />
        </mxCell>
        <mxCell id="LPHRDOvG9MagjACSPe5_-89" style="edgeStyle=orthogonalEdgeStyle;rounded=0;orthogonalLoop=1;jettySize=auto;html=1;exitX=0.5;exitY=0;exitDx=0;exitDy=0;entryX=0.5;entryY=1;entryDx=0;entryDy=0;curved=1;endArrow=none;startFill=0;" edge="1" parent="1" source="LPHRDOvG9MagjACSPe5_-90" target="LPHRDOvG9MagjACSPe5_-40">
          <mxGeometry relative="1" as="geometry" />
        </mxCell>
        <mxCell id="LPHRDOvG9MagjACSPe5_-90" value="" style="ellipse;whiteSpace=wrap;html=1;aspect=fixed;fillColor=#FFFFFF;" vertex="1" parent="1">
          <mxGeometry x="650" y="1298" width="14" height="14" as="geometry" />
        </mxCell>
        <mxCell id="LPHRDOvG9MagjACSPe5_-91" value="" style="ellipse;whiteSpace=wrap;html=1;aspect=fixed;fillColor=#FFFFFF;" vertex="1" parent="1">
          <mxGeometry x="593" y="1284" width="14" height="14" as="geometry" />
        </mxCell>
        <mxCell id="LPHRDOvG9MagjACSPe5_-92" value="" style="ellipse;whiteSpace=wrap;html=1;aspect=fixed;fillColor=#FFFFFF;" vertex="1" parent="1">
          <mxGeometry x="619" y="1298" width="14" height="14" as="geometry" />
        </mxCell>
        <mxCell id="LPHRDOvG9MagjACSPe5_-93" value="" style="ellipse;whiteSpace=wrap;html=1;aspect=fixed;fillColor=#FFFFFF;" vertex="1" parent="1">
          <mxGeometry x="577" y="1262" width="14" height="14" as="geometry" />
        </mxCell>
        <mxCell id="LPHRDOvG9MagjACSPe5_-94" value="First_Name" style="text;html=1;align=center;verticalAlign=middle;resizable=0;points=[];autosize=1;strokeColor=none;fillColor=none;" vertex="1" parent="1">
          <mxGeometry x="497" y="1254" width="90" height="30" as="geometry" />
        </mxCell>
        <mxCell id="LPHRDOvG9MagjACSPe5_-95" value="Last_Name" style="text;html=1;align=center;verticalAlign=middle;resizable=0;points=[];autosize=1;strokeColor=none;fillColor=none;" vertex="1" parent="1">
          <mxGeometry x="517" y="1276" width="80" height="30" as="geometry" />
        </mxCell>
        <mxCell id="LPHRDOvG9MagjACSPe5_-96" value="Gender" style="text;html=1;align=center;verticalAlign=middle;resizable=0;points=[];autosize=1;strokeColor=none;fillColor=none;" vertex="1" parent="1">
          <mxGeometry x="577" y="1306" width="60" height="30" as="geometry" />
        </mxCell>
        <mxCell id="LPHRDOvG9MagjACSPe5_-97" value="Address" style="text;html=1;align=center;verticalAlign=middle;resizable=0;points=[];autosize=1;strokeColor=none;fillColor=none;" vertex="1" parent="1">
          <mxGeometry x="628" y="1310" width="70" height="30" as="geometry" />
        </mxCell>
        <mxCell id="LPHRDOvG9MagjACSPe5_-98" value="Zip_Code" style="text;html=1;align=center;verticalAlign=middle;resizable=0;points=[];autosize=1;strokeColor=none;fillColor=none;" vertex="1" parent="1">
          <mxGeometry x="694" y="1298" width="80" height="30" as="geometry" />
        </mxCell>
        <mxCell id="LPHRDOvG9MagjACSPe5_-99" value="" style="ellipse;whiteSpace=wrap;html=1;aspect=fixed;fillColor=#FFFFFF;" vertex="1" parent="1">
          <mxGeometry x="713" y="1292" width="14" height="14" as="geometry" />
        </mxCell>
        <mxCell id="LPHRDOvG9MagjACSPe5_-100" value="Lon" style="text;html=1;align=center;verticalAlign=middle;resizable=0;points=[];autosize=1;strokeColor=none;fillColor=none;" vertex="1" parent="1">
          <mxGeometry x="788" y="1262" width="40" height="30" as="geometry" />
        </mxCell>
        <mxCell id="LPHRDOvG9MagjACSPe5_-101" value="Lat" style="text;html=1;align=center;verticalAlign=middle;resizable=0;points=[];autosize=1;strokeColor=none;fillColor=none;" vertex="1" parent="1">
          <mxGeometry x="779" y="1284" width="40" height="30" as="geometry" />
        </mxCell>
        <mxCell id="LPHRDOvG9MagjACSPe5_-102" value="" style="ellipse;whiteSpace=wrap;html=1;aspect=fixed;fillColor=#FFFFFF;" vertex="1" parent="1">
          <mxGeometry x="774" y="1292" width="14" height="14" as="geometry" />
        </mxCell>
        <mxCell id="LPHRDOvG9MagjACSPe5_-103" value="" style="ellipse;whiteSpace=wrap;html=1;aspect=fixed;fillColor=#FFFFFF;" vertex="1" parent="1">
          <mxGeometry x="779" y="1270" width="14" height="14" as="geometry" />
        </mxCell>
        <mxCell id="LPHRDOvG9MagjACSPe5_-104" style="edgeStyle=orthogonalEdgeStyle;rounded=0;orthogonalLoop=1;jettySize=auto;html=1;exitX=1;exitY=0.5;exitDx=0;exitDy=0;entryX=0;entryY=0.5;entryDx=0;entryDy=0;endArrow=none;startFill=0;curved=1;" edge="1" parent="1" source="LPHRDOvG9MagjACSPe5_-40" target="LPHRDOvG9MagjACSPe5_-103">
          <mxGeometry relative="1" as="geometry" />
        </mxCell>
        <mxCell id="LPHRDOvG9MagjACSPe5_-105" style="edgeStyle=orthogonalEdgeStyle;rounded=0;orthogonalLoop=1;jettySize=auto;html=1;exitX=0;exitY=0;exitDx=0;exitDy=0;entryX=0.981;entryY=0.726;entryDx=0;entryDy=0;entryPerimeter=0;endArrow=none;startFill=0;curved=1;" edge="1" parent="1" source="LPHRDOvG9MagjACSPe5_-102" target="LPHRDOvG9MagjACSPe5_-40">
          <mxGeometry relative="1" as="geometry" />
        </mxCell>
        <mxCell id="LPHRDOvG9MagjACSPe5_-106" value="" style="ellipse;whiteSpace=wrap;html=1;aspect=fixed;fillColor=#FFFFFF;" vertex="1" parent="1">
          <mxGeometry x="779" y="1246" width="14" height="14" as="geometry" />
        </mxCell>
        <mxCell id="LPHRDOvG9MagjACSPe5_-107" value="Utilization" style="text;html=1;align=center;verticalAlign=middle;resizable=0;points=[];autosize=1;strokeColor=none;fillColor=none;" vertex="1" parent="1">
          <mxGeometry x="783" y="1238" width="80" height="30" as="geometry" />
        </mxCell>
        <mxCell id="LPHRDOvG9MagjACSPe5_-108" style="edgeStyle=orthogonalEdgeStyle;rounded=0;orthogonalLoop=1;jettySize=auto;html=1;exitX=0.924;exitY=0.747;exitDx=0;exitDy=0;entryX=0.5;entryY=0;entryDx=0;entryDy=0;curved=1;exitPerimeter=0;" edge="1" parent="1" source="LPHRDOvG9MagjACSPe5_-124" target="LPHRDOvG9MagjACSPe5_-55">
          <mxGeometry relative="1" as="geometry" />
        </mxCell>
        <mxCell id="LPHRDOvG9MagjACSPe5_-109" style="edgeStyle=orthogonalEdgeStyle;rounded=0;orthogonalLoop=1;jettySize=auto;html=1;exitX=0.355;exitY=0.017;exitDx=0;exitDy=0;entryX=0.5;entryY=1;entryDx=0;entryDy=0;curved=1;endArrow=none;startFill=0;exitPerimeter=0;" edge="1" parent="1" source="LPHRDOvG9MagjACSPe5_-124" target="LPHRDOvG9MagjACSPe5_-129">
          <mxGeometry relative="1" as="geometry" />
        </mxCell>
        <mxCell id="LPHRDOvG9MagjACSPe5_-110" style="edgeStyle=orthogonalEdgeStyle;rounded=0;orthogonalLoop=1;jettySize=auto;html=1;exitX=0.5;exitY=0;exitDx=0;exitDy=0;entryX=0.5;entryY=1;entryDx=0;entryDy=0;curved=1;endArrow=none;startFill=0;" edge="1" parent="1" source="LPHRDOvG9MagjACSPe5_-124" target="LPHRDOvG9MagjACSPe5_-127">
          <mxGeometry relative="1" as="geometry" />
        </mxCell>
        <mxCell id="LPHRDOvG9MagjACSPe5_-111" style="edgeStyle=orthogonalEdgeStyle;rounded=0;orthogonalLoop=1;jettySize=auto;html=1;exitX=0.673;exitY=0.055;exitDx=0;exitDy=0;entryX=0.5;entryY=1;entryDx=0;entryDy=0;curved=1;exitPerimeter=0;endArrow=none;startFill=0;" edge="1" parent="1" source="LPHRDOvG9MagjACSPe5_-124" target="LPHRDOvG9MagjACSPe5_-128">
          <mxGeometry relative="1" as="geometry">
            <mxPoint x="993" y="542" as="targetPoint" />
          </mxGeometry>
        </mxCell>
        <mxCell id="LPHRDOvG9MagjACSPe5_-112" style="edgeStyle=orthogonalEdgeStyle;rounded=0;orthogonalLoop=1;jettySize=auto;html=1;exitX=0.651;exitY=0.036;exitDx=0;exitDy=0;entryX=0.5;entryY=1;entryDx=0;entryDy=0;curved=1;exitPerimeter=0;endArrow=none;startFill=0;" edge="1" parent="1" source="LPHRDOvG9MagjACSPe5_-124" target="LPHRDOvG9MagjACSPe5_-126">
          <mxGeometry relative="1" as="geometry">
            <mxPoint x="1073" y="492" as="targetPoint" />
            <Array as="points">
              <mxPoint x="983" y="752" />
              <mxPoint x="983" y="592" />
              <mxPoint x="1073" y="592" />
              <mxPoint x="1073" y="432" />
            </Array>
          </mxGeometry>
        </mxCell>
        <mxCell id="LPHRDOvG9MagjACSPe5_-113" style="edgeStyle=orthogonalEdgeStyle;rounded=0;orthogonalLoop=1;jettySize=auto;html=1;exitX=0.978;exitY=0.364;exitDx=0;exitDy=0;entryX=0.5;entryY=1;entryDx=0;entryDy=0;exitPerimeter=0;curved=1;endArrow=none;startFill=0;" edge="1" parent="1" source="LPHRDOvG9MagjACSPe5_-124" target="LPHRDOvG9MagjACSPe5_-152">
          <mxGeometry relative="1" as="geometry">
            <mxPoint x="1173.655737704918" y="758.9508196721312" as="targetPoint" />
            <Array as="points">
              <mxPoint x="1170" y="757" />
            </Array>
          </mxGeometry>
        </mxCell>
        <mxCell id="LPHRDOvG9MagjACSPe5_-114" style="edgeStyle=orthogonalEdgeStyle;rounded=0;orthogonalLoop=1;jettySize=auto;html=1;exitX=1;exitY=0.5;exitDx=0;exitDy=0;entryX=0;entryY=0.5;entryDx=0;entryDy=0;curved=1;endArrow=none;startFill=0;" edge="1" parent="1" source="LPHRDOvG9MagjACSPe5_-124" target="LPHRDOvG9MagjACSPe5_-153">
          <mxGeometry relative="1" as="geometry">
            <Array as="points">
              <mxPoint x="1153" y="759" />
              <mxPoint x="1153" y="699" />
            </Array>
          </mxGeometry>
        </mxCell>
        <mxCell id="LPHRDOvG9MagjACSPe5_-115" style="edgeStyle=orthogonalEdgeStyle;rounded=0;orthogonalLoop=1;jettySize=auto;html=1;exitX=1;exitY=0.5;exitDx=0;exitDy=0;entryX=0;entryY=0.5;entryDx=0;entryDy=0;curved=1;endArrow=none;startFill=0;" edge="1" parent="1" source="LPHRDOvG9MagjACSPe5_-124" target="LPHRDOvG9MagjACSPe5_-154">
          <mxGeometry relative="1" as="geometry">
            <Array as="points">
              <mxPoint x="1133" y="759" />
              <mxPoint x="1133" y="745" />
            </Array>
          </mxGeometry>
        </mxCell>
        <mxCell id="LPHRDOvG9MagjACSPe5_-116" style="edgeStyle=orthogonalEdgeStyle;rounded=0;orthogonalLoop=1;jettySize=auto;html=1;exitX=0.976;exitY=0.669;exitDx=0;exitDy=0;entryX=0;entryY=0.5;entryDx=0;entryDy=0;curved=1;exitPerimeter=0;endArrow=none;startFill=0;" edge="1" parent="1" source="LPHRDOvG9MagjACSPe5_-124" target="LPHRDOvG9MagjACSPe5_-155">
          <mxGeometry relative="1" as="geometry" />
        </mxCell>
        <mxCell id="LPHRDOvG9MagjACSPe5_-117" style="edgeStyle=orthogonalEdgeStyle;rounded=0;orthogonalLoop=1;jettySize=auto;html=1;exitX=1.013;exitY=0.249;exitDx=0;exitDy=0;entryX=0.5;entryY=0;entryDx=0;entryDy=0;curved=1;endArrow=none;startFill=0;exitPerimeter=0;" edge="1" parent="1" source="LPHRDOvG9MagjACSPe5_-125" target="LPHRDOvG9MagjACSPe5_-163">
          <mxGeometry relative="1" as="geometry">
            <Array as="points">
              <mxPoint x="930" y="766" />
              <mxPoint x="930" y="799" />
              <mxPoint x="903" y="799" />
            </Array>
          </mxGeometry>
        </mxCell>
        <mxCell id="LPHRDOvG9MagjACSPe5_-118" style="edgeStyle=orthogonalEdgeStyle;rounded=0;orthogonalLoop=1;jettySize=auto;html=1;exitX=0;exitY=1;exitDx=0;exitDy=0;entryX=0.5;entryY=0;entryDx=0;entryDy=0;curved=1;endArrow=none;startFill=0;" edge="1" parent="1" source="LPHRDOvG9MagjACSPe5_-124" target="LPHRDOvG9MagjACSPe5_-162">
          <mxGeometry relative="1" as="geometry">
            <Array as="points">
              <mxPoint x="925" y="782" />
              <mxPoint x="883" y="782" />
            </Array>
          </mxGeometry>
        </mxCell>
        <mxCell id="LPHRDOvG9MagjACSPe5_-119" style="edgeStyle=orthogonalEdgeStyle;rounded=0;orthogonalLoop=1;jettySize=auto;html=1;exitX=0.7;exitY=0.961;exitDx=0;exitDy=0;entryX=0.5;entryY=0;entryDx=0;entryDy=0;exitPerimeter=0;curved=1;endArrow=none;startFill=0;" edge="1" parent="1" source="LPHRDOvG9MagjACSPe5_-124" target="LPHRDOvG9MagjACSPe5_-165">
          <mxGeometry relative="1" as="geometry">
            <Array as="points">
              <mxPoint x="933" y="799" />
              <mxPoint x="940" y="799" />
            </Array>
          </mxGeometry>
        </mxCell>
        <mxCell id="LPHRDOvG9MagjACSPe5_-120" style="edgeStyle=orthogonalEdgeStyle;rounded=0;orthogonalLoop=1;jettySize=auto;html=1;exitX=0.797;exitY=0.928;exitDx=0;exitDy=0;entryX=0.5;entryY=0;entryDx=0;entryDy=0;curved=1;endArrow=none;startFill=0;exitPerimeter=0;" edge="1" parent="1">
          <mxGeometry relative="1" as="geometry">
            <mxPoint x="932.998" y="764.992" as="sourcePoint" />
            <mxPoint x="962.84" y="875.9999999999999" as="targetPoint" />
          </mxGeometry>
        </mxCell>
        <mxCell id="LPHRDOvG9MagjACSPe5_-121" style="edgeStyle=orthogonalEdgeStyle;rounded=0;orthogonalLoop=1;jettySize=auto;html=1;exitX=1;exitY=1;exitDx=0;exitDy=0;entryX=0.5;entryY=0;entryDx=0;entryDy=0;curved=1;endArrow=none;startFill=0;" edge="1" parent="1" source="LPHRDOvG9MagjACSPe5_-124" target="LPHRDOvG9MagjACSPe5_-167">
          <mxGeometry relative="1" as="geometry" />
        </mxCell>
        <mxCell id="LPHRDOvG9MagjACSPe5_-122" style="edgeStyle=orthogonalEdgeStyle;rounded=0;orthogonalLoop=1;jettySize=auto;html=1;exitX=1;exitY=0.5;exitDx=0;exitDy=0;entryX=0;entryY=0.5;entryDx=0;entryDy=0;curved=1;endArrow=none;startFill=0;" edge="1" parent="1" source="LPHRDOvG9MagjACSPe5_-124" target="LPHRDOvG9MagjACSPe5_-171">
          <mxGeometry relative="1" as="geometry" />
        </mxCell>
        <mxCell id="LPHRDOvG9MagjACSPe5_-123" style="edgeStyle=orthogonalEdgeStyle;rounded=0;orthogonalLoop=1;jettySize=auto;html=1;exitX=1;exitY=0.5;exitDx=0;exitDy=0;entryX=0;entryY=0.5;entryDx=0;entryDy=0;curved=1;endArrow=none;startFill=0;" edge="1" parent="1" source="LPHRDOvG9MagjACSPe5_-124" target="LPHRDOvG9MagjACSPe5_-174">
          <mxGeometry relative="1" as="geometry">
            <mxPoint x="1073" y="862" as="targetPoint" />
          </mxGeometry>
        </mxCell>
        <mxCell id="LPHRDOvG9MagjACSPe5_-124" value="" style="ellipse;whiteSpace=wrap;html=1;aspect=fixed;fillColor=#FFFFFF;" vertex="1" parent="1">
          <mxGeometry x="923" y="752" width="14" height="14" as="geometry" />
        </mxCell>
        <mxCell id="LPHRDOvG9MagjACSPe5_-125" value="Id_Patient" style="text;html=1;align=center;verticalAlign=middle;resizable=0;points=[];autosize=1;strokeColor=none;fillColor=none;" vertex="1" parent="1">
          <mxGeometry x="847" y="758" width="80" height="30" as="geometry" />
        </mxCell>
        <mxCell id="LPHRDOvG9MagjACSPe5_-126" value="" style="ellipse;whiteSpace=wrap;html=1;aspect=fixed;fillColor=#FFFFFF;" vertex="1" parent="1">
          <mxGeometry x="1056" y="418" width="14" height="14" as="geometry" />
        </mxCell>
        <mxCell id="LPHRDOvG9MagjACSPe5_-127" value="" style="ellipse;whiteSpace=wrap;html=1;aspect=fixed;fillColor=#FFFFFF;" vertex="1" parent="1">
          <mxGeometry x="933" y="522" width="14" height="14" as="geometry" />
        </mxCell>
        <mxCell id="LPHRDOvG9MagjACSPe5_-128" value="" style="ellipse;whiteSpace=wrap;html=1;aspect=fixed;fillColor=#FFFFFF;" vertex="1" parent="1">
          <mxGeometry x="989" y="522" width="14" height="14" as="geometry" />
        </mxCell>
        <mxCell id="LPHRDOvG9MagjACSPe5_-129" value="" style="ellipse;whiteSpace=wrap;html=1;aspect=fixed;fillColor=#FFFFFF;" vertex="1" parent="1">
          <mxGeometry x="893" y="522" width="14" height="14" as="geometry" />
        </mxCell>
        <mxCell id="LPHRDOvG9MagjACSPe5_-130" value="Last_Name" style="text;html=1;align=center;verticalAlign=middle;resizable=0;points=[];autosize=1;strokeColor=none;fillColor=none;" vertex="1" parent="1">
          <mxGeometry x="837" y="492" width="80" height="30" as="geometry" />
        </mxCell>
        <mxCell id="LPHRDOvG9MagjACSPe5_-131" value="Gender" style="text;html=1;align=center;verticalAlign=middle;resizable=0;points=[];autosize=1;strokeColor=none;fillColor=none;" vertex="1" parent="1">
          <mxGeometry x="987" y="492" width="60" height="30" as="geometry" />
        </mxCell>
        <mxCell id="LPHRDOvG9MagjACSPe5_-132" value="First_Name" style="text;html=1;align=center;verticalAlign=middle;resizable=0;points=[];autosize=1;strokeColor=none;fillColor=none;" vertex="1" parent="1">
          <mxGeometry x="907" y="492" width="90" height="30" as="geometry" />
        </mxCell>
        <mxCell id="LPHRDOvG9MagjACSPe5_-133" value="" style="ellipse;whiteSpace=wrap;html=1;aspect=fixed;fillColor=#FFFFFF;" vertex="1" parent="1">
          <mxGeometry x="1150" y="418" width="14" height="14" as="geometry" />
        </mxCell>
        <mxCell id="LPHRDOvG9MagjACSPe5_-134" value="" style="ellipse;whiteSpace=wrap;html=1;aspect=fixed;fillColor=#FFFFFF;" vertex="1" parent="1">
          <mxGeometry x="1099" y="418" width="14" height="14" as="geometry" />
        </mxCell>
        <mxCell id="LPHRDOvG9MagjACSPe5_-135" value="" style="ellipse;whiteSpace=wrap;html=1;aspect=fixed;fillColor=#FFFFFF;" vertex="1" parent="1">
          <mxGeometry x="1193" y="418" width="14" height="14" as="geometry" />
        </mxCell>
        <mxCell id="LPHRDOvG9MagjACSPe5_-136" value="Birthdate" style="text;html=1;align=center;verticalAlign=middle;resizable=0;points=[];autosize=1;strokeColor=none;fillColor=none;" vertex="1" parent="1">
          <mxGeometry x="1003" y="392" width="70" height="30" as="geometry" />
        </mxCell>
        <mxCell id="LPHRDOvG9MagjACSPe5_-137" value="Deathdate" style="text;html=1;align=center;verticalAlign=middle;resizable=0;points=[];autosize=1;strokeColor=none;fillColor=none;" vertex="1" parent="1">
          <mxGeometry x="1066" y="392" width="80" height="30" as="geometry" />
        </mxCell>
        <mxCell id="LPHRDOvG9MagjACSPe5_-138" value="SSN" style="text;html=1;align=center;verticalAlign=middle;resizable=0;points=[];autosize=1;strokeColor=none;fillColor=none;" vertex="1" parent="1">
          <mxGeometry x="1133" y="392" width="50" height="30" as="geometry" />
        </mxCell>
        <mxCell id="LPHRDOvG9MagjACSPe5_-139" value="Drivers" style="text;html=1;align=center;verticalAlign=middle;resizable=0;points=[];autosize=1;strokeColor=none;fillColor=none;" vertex="1" parent="1">
          <mxGeometry x="1173" y="390" width="60" height="30" as="geometry" />
        </mxCell>
        <mxCell id="LPHRDOvG9MagjACSPe5_-140" style="edgeStyle=orthogonalEdgeStyle;rounded=0;orthogonalLoop=1;jettySize=auto;html=1;exitX=1;exitY=0;exitDx=0;exitDy=0;entryX=0.5;entryY=1;entryDx=0;entryDy=0;curved=1;endArrow=none;startFill=0;" edge="1" parent="1" source="LPHRDOvG9MagjACSPe5_-124" target="LPHRDOvG9MagjACSPe5_-134">
          <mxGeometry relative="1" as="geometry">
            <mxPoint x="1073" y="442" as="targetPoint" />
            <mxPoint x="944" y="763" as="sourcePoint" />
            <Array as="points">
              <mxPoint x="935" y="752" />
              <mxPoint x="993" y="752" />
              <mxPoint x="993" y="602" />
              <mxPoint x="1103" y="602" />
              <mxPoint x="1103" y="432" />
            </Array>
          </mxGeometry>
        </mxCell>
        <mxCell id="LPHRDOvG9MagjACSPe5_-141" style="edgeStyle=orthogonalEdgeStyle;rounded=0;orthogonalLoop=1;jettySize=auto;html=1;exitX=1;exitY=0;exitDx=0;exitDy=0;entryX=0.5;entryY=1;entryDx=0;entryDy=0;curved=1;endArrow=none;startFill=0;" edge="1" parent="1" source="LPHRDOvG9MagjACSPe5_-124" target="LPHRDOvG9MagjACSPe5_-133">
          <mxGeometry relative="1" as="geometry">
            <mxPoint x="1176" y="449" as="targetPoint" />
            <mxPoint x="1047" y="770" as="sourcePoint" />
            <Array as="points">
              <mxPoint x="1096" y="754" />
              <mxPoint x="1096" y="609" />
              <mxPoint x="1153" y="609" />
              <mxPoint x="1153" y="432" />
            </Array>
          </mxGeometry>
        </mxCell>
        <mxCell id="LPHRDOvG9MagjACSPe5_-142" style="edgeStyle=orthogonalEdgeStyle;rounded=0;orthogonalLoop=1;jettySize=auto;html=1;exitX=0.947;exitY=0.277;exitDx=0;exitDy=0;entryX=0.5;entryY=1;entryDx=0;entryDy=0;curved=1;endArrow=none;startFill=0;exitPerimeter=0;" edge="1" parent="1" source="LPHRDOvG9MagjACSPe5_-124" target="LPHRDOvG9MagjACSPe5_-135">
          <mxGeometry relative="1" as="geometry">
            <mxPoint x="1167" y="442" as="targetPoint" />
            <mxPoint x="945" y="764" as="sourcePoint" />
            <Array as="points">
              <mxPoint x="936" y="752" />
              <mxPoint x="1103" y="752" />
              <mxPoint x="1103" y="619" />
              <mxPoint x="1163" y="619" />
              <mxPoint x="1163" y="442" />
              <mxPoint x="1200" y="442" />
            </Array>
          </mxGeometry>
        </mxCell>
        <mxCell id="LPHRDOvG9MagjACSPe5_-143" style="edgeStyle=orthogonalEdgeStyle;rounded=0;orthogonalLoop=1;jettySize=auto;html=1;exitX=0.5;exitY=1;exitDx=0;exitDy=0;entryX=0.234;entryY=0.075;entryDx=0;entryDy=0;endArrow=none;startFill=0;curved=1;entryPerimeter=0;" edge="1" parent="1" source="LPHRDOvG9MagjACSPe5_-144" target="LPHRDOvG9MagjACSPe5_-124">
          <mxGeometry relative="1" as="geometry">
            <Array as="points">
              <mxPoint x="862" y="654" />
              <mxPoint x="903" y="654" />
              <mxPoint x="903" y="742" />
              <mxPoint x="926" y="742" />
            </Array>
          </mxGeometry>
        </mxCell>
        <mxCell id="LPHRDOvG9MagjACSPe5_-144" value="" style="ellipse;whiteSpace=wrap;html=1;aspect=fixed;fillColor=#FFFFFF;" vertex="1" parent="1">
          <mxGeometry x="855" y="542" width="14" height="14" as="geometry" />
        </mxCell>
        <mxCell id="LPHRDOvG9MagjACSPe5_-145" style="edgeStyle=orthogonalEdgeStyle;rounded=0;orthogonalLoop=1;jettySize=auto;html=1;exitX=1;exitY=1;exitDx=0;exitDy=0;entryX=0;entryY=0;entryDx=0;entryDy=0;curved=1;endArrow=none;startFill=0;" edge="1" parent="1" source="LPHRDOvG9MagjACSPe5_-146" target="LPHRDOvG9MagjACSPe5_-124">
          <mxGeometry relative="1" as="geometry">
            <Array as="points">
              <mxPoint x="835" y="604" />
              <mxPoint x="863" y="604" />
              <mxPoint x="863" y="742" />
              <mxPoint x="925" y="742" />
            </Array>
          </mxGeometry>
        </mxCell>
        <mxCell id="LPHRDOvG9MagjACSPe5_-146" value="" style="ellipse;whiteSpace=wrap;html=1;aspect=fixed;fillColor=#FFFFFF;" vertex="1" parent="1">
          <mxGeometry x="823" y="564" width="14" height="14" as="geometry" />
        </mxCell>
        <mxCell id="LPHRDOvG9MagjACSPe5_-147" value="Passport" style="text;html=1;align=center;verticalAlign=middle;resizable=0;points=[];autosize=1;strokeColor=none;fillColor=none;" vertex="1" parent="1">
          <mxGeometry x="793" y="534" width="70" height="30" as="geometry" />
        </mxCell>
        <mxCell id="LPHRDOvG9MagjACSPe5_-148" value="Prefix" style="text;html=1;align=center;verticalAlign=middle;resizable=0;points=[];autosize=1;strokeColor=none;fillColor=none;" vertex="1" parent="1">
          <mxGeometry x="780" y="556" width="50" height="30" as="geometry" />
        </mxCell>
        <mxCell id="LPHRDOvG9MagjACSPe5_-149" style="edgeStyle=orthogonalEdgeStyle;rounded=0;orthogonalLoop=1;jettySize=auto;html=1;exitX=1;exitY=1;exitDx=0;exitDy=0;entryX=0;entryY=0;entryDx=0;entryDy=0;curved=1;endArrow=none;startFill=0;" edge="1" parent="1" source="LPHRDOvG9MagjACSPe5_-150" target="LPHRDOvG9MagjACSPe5_-124">
          <mxGeometry relative="1" as="geometry">
            <mxPoint x="923" y="752" as="targetPoint" />
            <Array as="points">
              <mxPoint x="843" y="614" />
              <mxPoint x="843" y="754" />
            </Array>
          </mxGeometry>
        </mxCell>
        <mxCell id="LPHRDOvG9MagjACSPe5_-150" value="" style="ellipse;whiteSpace=wrap;html=1;aspect=fixed;fillColor=#FFFFFF;" vertex="1" parent="1">
          <mxGeometry x="816" y="602" width="14" height="14" as="geometry" />
        </mxCell>
        <mxCell id="LPHRDOvG9MagjACSPe5_-151" value="Suffix" style="text;html=1;align=center;verticalAlign=middle;resizable=0;points=[];autosize=1;strokeColor=none;fillColor=none;" vertex="1" parent="1">
          <mxGeometry x="774" y="586" width="50" height="30" as="geometry" />
        </mxCell>
        <mxCell id="LPHRDOvG9MagjACSPe5_-152" value="" style="ellipse;whiteSpace=wrap;html=1;aspect=fixed;fillColor=#FFFFFF;" vertex="1" parent="1">
          <mxGeometry x="1163" y="652" width="14" height="14" as="geometry" />
        </mxCell>
        <mxCell id="LPHRDOvG9MagjACSPe5_-153" value="" style="ellipse;whiteSpace=wrap;html=1;aspect=fixed;fillColor=#FFFFFF;" vertex="1" parent="1">
          <mxGeometry x="1193" y="692" width="14" height="14" as="geometry" />
        </mxCell>
        <mxCell id="LPHRDOvG9MagjACSPe5_-154" value="" style="ellipse;whiteSpace=wrap;html=1;aspect=fixed;fillColor=#FFFFFF;" vertex="1" parent="1">
          <mxGeometry x="1193" y="738" width="14" height="14" as="geometry" />
        </mxCell>
        <mxCell id="LPHRDOvG9MagjACSPe5_-155" value="" style="ellipse;whiteSpace=wrap;html=1;aspect=fixed;fillColor=#FFFFFF;" vertex="1" parent="1">
          <mxGeometry x="1155" y="766" width="14" height="14" as="geometry" />
        </mxCell>
        <mxCell id="LPHRDOvG9MagjACSPe5_-156" value="Maiden" style="text;html=1;align=center;verticalAlign=middle;resizable=0;points=[];autosize=1;strokeColor=none;fillColor=none;" vertex="1" parent="1">
          <mxGeometry x="1153" y="626" width="60" height="30" as="geometry" />
        </mxCell>
        <mxCell id="LPHRDOvG9MagjACSPe5_-157" value="Marital" style="text;html=1;align=center;verticalAlign=middle;resizable=0;points=[];autosize=1;strokeColor=none;fillColor=none;" vertex="1" parent="1">
          <mxGeometry x="1197" y="676" width="60" height="30" as="geometry" />
        </mxCell>
        <mxCell id="LPHRDOvG9MagjACSPe5_-158" value="Birthplace" style="text;html=1;align=center;verticalAlign=middle;resizable=0;points=[];autosize=1;strokeColor=none;fillColor=none;" vertex="1" parent="1">
          <mxGeometry x="1163" y="713" width="80" height="30" as="geometry" />
        </mxCell>
        <mxCell id="LPHRDOvG9MagjACSPe5_-159" value="Address" style="text;html=1;align=center;verticalAlign=middle;resizable=0;points=[];autosize=1;strokeColor=none;fillColor=none;" vertex="1" parent="1">
          <mxGeometry x="1160" y="758" width="70" height="30" as="geometry" />
        </mxCell>
        <mxCell id="LPHRDOvG9MagjACSPe5_-160" value="Zip_Code" style="text;html=1;align=center;verticalAlign=middle;resizable=0;points=[];autosize=1;strokeColor=none;fillColor=none;" vertex="1" parent="1">
          <mxGeometry x="824" y="842" width="80" height="30" as="geometry" />
        </mxCell>
        <mxCell id="LPHRDOvG9MagjACSPe5_-161" value="Lat" style="text;html=1;align=center;verticalAlign=middle;resizable=0;points=[];autosize=1;strokeColor=none;fillColor=none;" vertex="1" parent="1">
          <mxGeometry x="884" y="842" width="40" height="30" as="geometry" />
        </mxCell>
        <mxCell id="LPHRDOvG9MagjACSPe5_-162" value="" style="ellipse;whiteSpace=wrap;html=1;aspect=fixed;fillColor=#FFFFFF;" vertex="1" parent="1">
          <mxGeometry x="855" y="832" width="14" height="14" as="geometry" />
        </mxCell>
        <mxCell id="LPHRDOvG9MagjACSPe5_-163" value="" style="ellipse;whiteSpace=wrap;html=1;aspect=fixed;fillColor=#FFFFFF;" vertex="1" parent="1">
          <mxGeometry x="896" y="832" width="14" height="14" as="geometry" />
        </mxCell>
        <mxCell id="LPHRDOvG9MagjACSPe5_-164" value="Lon" style="text;html=1;align=center;verticalAlign=middle;resizable=0;points=[];autosize=1;strokeColor=none;fillColor=none;" vertex="1" parent="1">
          <mxGeometry x="917" y="842" width="40" height="30" as="geometry" />
        </mxCell>
        <mxCell id="LPHRDOvG9MagjACSPe5_-165" value="" style="ellipse;whiteSpace=wrap;html=1;aspect=fixed;fillColor=#FFFFFF;" vertex="1" parent="1">
          <mxGeometry x="933" y="832" width="14" height="14" as="geometry" />
        </mxCell>
        <mxCell id="LPHRDOvG9MagjACSPe5_-166" value="" style="ellipse;whiteSpace=wrap;html=1;aspect=fixed;fillColor=#FFFFFF;" vertex="1" parent="1">
          <mxGeometry x="957" y="876" width="14" height="14" as="geometry" />
        </mxCell>
        <mxCell id="LPHRDOvG9MagjACSPe5_-167" value="" style="ellipse;whiteSpace=wrap;html=1;aspect=fixed;fillColor=#FFFFFF;" vertex="1" parent="1">
          <mxGeometry x="989" y="898" width="14" height="14" as="geometry" />
        </mxCell>
        <mxCell id="LPHRDOvG9MagjACSPe5_-168" value="Healthcare_expenses" style="text;html=1;align=center;verticalAlign=middle;resizable=0;points=[];autosize=1;strokeColor=none;fillColor=none;" vertex="1" parent="1">
          <mxGeometry x="828" y="868" width="140" height="30" as="geometry" />
        </mxCell>
        <mxCell id="LPHRDOvG9MagjACSPe5_-169" value="Healthcare_coverage" style="text;html=1;align=center;verticalAlign=middle;resizable=0;points=[];autosize=1;strokeColor=none;fillColor=none;" vertex="1" parent="1">
          <mxGeometry x="857" y="890" width="140" height="30" as="geometry" />
        </mxCell>
        <mxCell id="LPHRDOvG9MagjACSPe5_-170" style="edgeStyle=orthogonalEdgeStyle;rounded=0;orthogonalLoop=1;jettySize=auto;html=1;exitX=1;exitY=0.5;exitDx=0;exitDy=0;entryX=0;entryY=0.5;entryDx=0;entryDy=0;endArrow=none;startFill=0;" edge="1" parent="1" source="LPHRDOvG9MagjACSPe5_-171" target="LPHRDOvG9MagjACSPe5_-172">
          <mxGeometry relative="1" as="geometry" />
        </mxCell>
        <mxCell id="LPHRDOvG9MagjACSPe5_-171" value="" style="ellipse;whiteSpace=wrap;html=1;aspect=fixed;fillColor=#FFFFFF;" vertex="1" parent="1">
          <mxGeometry x="1173" y="812" width="14" height="14" as="geometry" />
        </mxCell>
        <mxCell id="LPHRDOvG9MagjACSPe5_-172" value="" style="ellipse;whiteSpace=wrap;html=1;aspect=fixed;fillColor=#FFFFFF;" vertex="1" parent="1">
          <mxGeometry x="1243" y="812" width="14" height="14" as="geometry" />
        </mxCell>
        <mxCell id="LPHRDOvG9MagjACSPe5_-173" style="edgeStyle=orthogonalEdgeStyle;rounded=0;orthogonalLoop=1;jettySize=auto;html=1;exitX=1;exitY=0.5;exitDx=0;exitDy=0;entryX=0;entryY=0.5;entryDx=0;entryDy=0;endArrow=none;startFill=0;" edge="1" parent="1" source="LPHRDOvG9MagjACSPe5_-174" target="LPHRDOvG9MagjACSPe5_-175">
          <mxGeometry relative="1" as="geometry" />
        </mxCell>
        <mxCell id="LPHRDOvG9MagjACSPe5_-174" value="" style="ellipse;whiteSpace=wrap;html=1;aspect=fixed;fillColor=#FFFFFF;" vertex="1" parent="1">
          <mxGeometry x="1173" y="862" width="14" height="14" as="geometry" />
        </mxCell>
        <mxCell id="LPHRDOvG9MagjACSPe5_-175" value="" style="ellipse;whiteSpace=wrap;html=1;aspect=fixed;fillColor=#FFFFFF;" vertex="1" parent="1">
          <mxGeometry x="1243" y="862" width="14" height="14" as="geometry" />
        </mxCell>
        <mxCell id="LPHRDOvG9MagjACSPe5_-176" value="Id_Race" style="text;html=1;align=center;verticalAlign=middle;resizable=0;points=[];autosize=1;strokeColor=none;fillColor=none;" vertex="1" parent="1">
          <mxGeometry x="1150" y="788" width="70" height="30" as="geometry" />
        </mxCell>
        <mxCell id="LPHRDOvG9MagjACSPe5_-177" value="Name" style="text;html=1;align=center;verticalAlign=middle;resizable=0;points=[];autosize=1;strokeColor=none;fillColor=none;" vertex="1" parent="1">
          <mxGeometry x="1225" y="788" width="60" height="30" as="geometry" />
        </mxCell>
        <mxCell id="LPHRDOvG9MagjACSPe5_-178" value="Id_Ethnicity" style="text;html=1;align=center;verticalAlign=middle;resizable=0;points=[];autosize=1;strokeColor=none;fillColor=none;" vertex="1" parent="1">
          <mxGeometry x="1138" y="830" width="90" height="30" as="geometry" />
        </mxCell>
        <mxCell id="LPHRDOvG9MagjACSPe5_-179" value="Name" style="text;html=1;align=center;verticalAlign=middle;resizable=0;points=[];autosize=1;strokeColor=none;fillColor=none;" vertex="1" parent="1">
          <mxGeometry x="1225" y="830" width="60" height="30" as="geometry" />
        </mxCell>
        <mxCell id="LPHRDOvG9MagjACSPe5_-180" style="edgeStyle=orthogonalEdgeStyle;rounded=0;orthogonalLoop=1;jettySize=auto;html=1;exitX=0.5;exitY=1;exitDx=0;exitDy=0;entryX=0.5;entryY=0;entryDx=0;entryDy=0;endArrow=none;startFill=0;" edge="1" parent="1" source="LPHRDOvG9MagjACSPe5_-181" target="LPHRDOvG9MagjACSPe5_-17">
          <mxGeometry relative="1" as="geometry" />
        </mxCell>
        <mxCell id="LPHRDOvG9MagjACSPe5_-181" value="" style="ellipse;whiteSpace=wrap;html=1;aspect=fixed;fillColor=#FFFFFF;" vertex="1" parent="1">
          <mxGeometry x="393" y="880" width="14" height="14" as="geometry" />
        </mxCell>
        <mxCell id="LPHRDOvG9MagjACSPe5_-182" value="Base_Cost" style="text;html=1;align=center;verticalAlign=middle;resizable=0;points=[];autosize=1;strokeColor=none;fillColor=none;" vertex="1" parent="1">
          <mxGeometry x="350" y="850" width="80" height="30" as="geometry" />
        </mxCell>
        <mxCell id="LPHRDOvG9MagjACSPe5_-193" style="edgeStyle=orthogonalEdgeStyle;rounded=0;orthogonalLoop=1;jettySize=auto;html=1;exitX=0;exitY=0;exitDx=0;exitDy=0;entryX=1;entryY=1;entryDx=0;entryDy=0;endArrow=none;startFill=0;curved=1;" edge="1" parent="1" source="LPHRDOvG9MagjACSPe5_-183" target="LPHRDOvG9MagjACSPe5_-9">
          <mxGeometry relative="1" as="geometry" />
        </mxCell>
        <mxCell id="LPHRDOvG9MagjACSPe5_-183" value="" style="ellipse;whiteSpace=wrap;html=1;aspect=fixed;fillColor=#FFFFFF;" vertex="1" parent="1">
          <mxGeometry x="731" y="1006" width="16" height="16" as="geometry" />
        </mxCell>
        <mxCell id="LPHRDOvG9MagjACSPe5_-184" value="Stop" style="text;html=1;align=center;verticalAlign=middle;resizable=0;points=[];autosize=1;strokeColor=none;fillColor=none;" vertex="1" parent="1">
          <mxGeometry x="715" y="1014" width="50" height="30" as="geometry" />
        </mxCell>
        <mxCell id="LPHRDOvG9MagjACSPe5_-185" value="" style="ellipse;whiteSpace=wrap;html=1;aspect=fixed;fillColor=#FFFFFF;" vertex="1" parent="1">
          <mxGeometry x="713" y="1060" width="16" height="16" as="geometry" />
        </mxCell>
        <mxCell id="LPHRDOvG9MagjACSPe5_-186" value="Start" style="text;html=1;align=center;verticalAlign=middle;resizable=0;points=[];autosize=1;strokeColor=none;fillColor=none;" vertex="1" parent="1">
          <mxGeometry x="697" y="1068" width="50" height="30" as="geometry" />
        </mxCell>
        <mxCell id="LPHRDOvG9MagjACSPe5_-187" value="" style="ellipse;whiteSpace=wrap;html=1;aspect=fixed;fillColor=#FFFFFF;" vertex="1" parent="1">
          <mxGeometry x="608" y="1000" width="16" height="16" as="geometry" />
        </mxCell>
        <mxCell id="LPHRDOvG9MagjACSPe5_-188" value="&lt;p style=&quot;margin: 0px; font-variant-numeric: normal; font-variant-east-asian: normal; font-variant-alternates: normal; font-size-adjust: none; font-kerning: auto; font-optical-sizing: auto; font-feature-settings: normal; font-variation-settings: normal; font-variant-position: normal; font-variant-emoji: normal; font-stretch: normal; line-height: normal; text-align: start; text-wrap-mode: wrap;&quot; class=&quot;p1&quot;&gt;Total_Claim_Cost&lt;/p&gt;" style="text;html=1;align=center;verticalAlign=middle;resizable=0;points=[];autosize=1;strokeColor=none;fillColor=none;" vertex="1" parent="1">
          <mxGeometry x="552" y="1014" width="120" height="30" as="geometry" />
        </mxCell>
        <mxCell id="LPHRDOvG9MagjACSPe5_-192" style="edgeStyle=orthogonalEdgeStyle;rounded=0;orthogonalLoop=1;jettySize=auto;html=1;exitX=1;exitY=0;exitDx=0;exitDy=0;entryX=0;entryY=1;entryDx=0;entryDy=0;endArrow=none;startFill=0;curved=1;" edge="1" parent="1" source="LPHRDOvG9MagjACSPe5_-189" target="LPHRDOvG9MagjACSPe5_-9">
          <mxGeometry relative="1" as="geometry" />
        </mxCell>
        <mxCell id="LPHRDOvG9MagjACSPe5_-189" value="" style="ellipse;whiteSpace=wrap;html=1;aspect=fixed;fillColor=#FFFFFF;" vertex="1" parent="1">
          <mxGeometry x="607" y="1060" width="16" height="16" as="geometry" />
        </mxCell>
        <mxCell id="LPHRDOvG9MagjACSPe5_-190" value="Payer_Coverage" style="text;html=1;align=center;verticalAlign=middle;resizable=0;points=[];autosize=1;strokeColor=none;fillColor=none;" vertex="1" parent="1">
          <mxGeometry x="564" y="1076" width="110" height="30" as="geometry" />
        </mxCell>
        <mxCell id="LPHRDOvG9MagjACSPe5_-191" style="edgeStyle=orthogonalEdgeStyle;rounded=0;orthogonalLoop=1;jettySize=auto;html=1;exitX=1;exitY=0;exitDx=0;exitDy=0;endArrow=none;startFill=0;entryX=0.051;entryY=0.707;entryDx=0;entryDy=0;entryPerimeter=0;curved=1;" edge="1" parent="1" source="LPHRDOvG9MagjACSPe5_-187" target="LPHRDOvG9MagjACSPe5_-9">
          <mxGeometry relative="1" as="geometry">
            <mxPoint x="683" y="982" as="targetPoint" />
          </mxGeometry>
        </mxCell>
        <mxCell id="LPHRDOvG9MagjACSPe5_-194" style="edgeStyle=orthogonalEdgeStyle;rounded=0;orthogonalLoop=1;jettySize=auto;html=1;exitX=0;exitY=0;exitDx=0;exitDy=0;entryX=0.637;entryY=0.954;entryDx=0;entryDy=0;entryPerimeter=0;endArrow=none;startFill=0;curved=1;" edge="1" parent="1" source="LPHRDOvG9MagjACSPe5_-185" target="LPHRDOvG9MagjACSPe5_-9">
          <mxGeometry relative="1" as="geometry" />
        </mxCell>
      </root>
    </mxGraphModel>
  </diagram>
</mxfile>
